<?xml version="1.0" standalone="no"?>
<!DOCTYPE svg PUBLIC "-//W3C//DTD SVG 20010904//EN"
 "http://www.w3.org/TR/2001/REC-SVG-20010904/DTD/svg10.dtd">
<svg version="1.0" xmlns="http://www.w3.org/2000/svg"
 width="2000.000000pt" height="2000.000000pt" viewBox="0 0 2000.000000 2000.000000"
 preserveAspectRatio="xMidYMid meet">

<g transform="translate(0.000000,2000.000000) scale(0.100000,-0.100000)"
fill="#000000" stroke="none">
<path d="M6556 17850 c-530 -67 -968 -411 -1151 -905 -20 -55 -44 -137 -54
-183 -16 -81 -17 -83 -42 -78 -163 32 -362 4 -514 -72 -150 -75 -288 -210
-360 -352 -154 -304 -113 -649 109 -914 87 -103 244 -204 386 -248 l75 -23
2020 -3 c1795 -2 2028 -1 2090 13 540 119 709 808 287 1168 -129 110 -293 164
-473 154 l-107 -5 -6 38 c-18 113 -96 303 -171 415 -181 272 -493 467 -800
501 -58 6 -62 9 -140 84 -233 225 -447 339 -745 395 -103 19 -310 27 -404 15z
m634 -844 c137 -19 233 -44 273 -70 l32 -22 3 -164 c4 -220 3 -224 -57 -252
l-49 -22 48 -22 c26 -12 50 -29 53 -39 4 -9 7 -95 7 -190 0 -195 -3 -204 -75
-229 l-40 -13 40 -17 c77 -33 75 -27 75 -233 0 -213 2 -209 -103 -242 -141
-43 -273 -56 -602 -56 -330 0 -463 12 -605 55 -107 33 -101 18 -98 246 l3 199
49 24 49 25 -38 13 c-68 23 -66 15 -63 237 l3 201 53 21 52 21 -38 11 c-70 21
-71 25 -72 237 -2 183 -1 190 20 207 43 35 219 73 410 88 145 12 543 3 670
-14z"/>
<path d="M9828 17148 c-10 -12 -18 -29 -18 -38 0 -19 40 -60 58 -60 16 0 52
41 52 60 0 22 -37 60 -58 60 -9 0 -25 -10 -34 -22z"/>
<path d="M10061 17144 c-12 -15 -21 -31 -21 -36 0 -13 51 -58 66 -58 18 0 54
40 54 60 0 23 -37 60 -60 60 -10 0 -28 -12 -39 -26z"/>
<path d="M9592 17148 c-21 -28 -24 -59 -6 -79 9 -10 24 -19 33 -19 28 0 61 30
61 55 0 41 -64 72 -88 43z"/>
<path d="M10302 17137 c-28 -30 -28 -38 3 -67 21 -20 30 -22 52 -14 40 14 51
39 33 72 -21 36 -59 40 -88 9z"/>
<path d="M9350 17123 c-27 -35 -22 -64 14 -82 25 -12 31 -11 55 6 35 27 37 46
6 77 -33 33 -48 33 -75 -1z"/>
<path d="M10547 17129 c-33 -26 -34 -43 -2 -74 30 -31 48 -31 75 -3 23 25 25
47 8 70 -22 27 -53 30 -81 7z"/>
<path d="M10780 17108 c-26 -28 -25 -48 1 -77 15 -15 27 -20 42 -15 32 10 49
25 43 41 -3 8 -1 11 4 8 20 -12 9 17 -15 40 -30 31 -48 31 -75 3z"/>
<path d="M9103 17094 c-15 -24 -15 -28 0 -52 20 -34 56 -39 85 -12 27 26 27
31 1 64 -27 34 -63 34 -86 0z"/>
<path d="M11045 17090 c3 -6 -1 -7 -9 -4 -10 4 -20 -3 -27 -20 -27 -58 44
-115 83 -66 24 30 23 52 -5 78 -23 22 -53 31 -42 12z"/>
<path d="M8889 17078 c-33 -28 -41 -46 -29 -67 17 -32 45 -43 74 -30 46 21 46
77 0 97 -30 15 -27 15 -45 0z"/>
<path d="M11256 17039 c-14 -11 -26 -25 -26 -31 0 -20 42 -68 59 -68 21 0 61
40 61 62 0 16 -44 58 -60 58 -4 0 -19 -9 -34 -21z"/>
<path d="M8640 17030 c-23 -23 -24 -33 -10 -60 29 -54 100 -40 100 20 0 55
-52 78 -90 40z"/>
<path d="M11492 16990 c-27 -25 -28 -61 -4 -83 24 -22 34 -21 66 4 32 25 34
62 4 83 -29 21 -40 20 -66 -4z"/>
<path d="M14158 16992 c-30 -19 -48 -51 -48 -88 0 -37 53 -84 95 -84 42 0 95
47 95 84 0 40 -20 74 -55 91 -40 18 -52 18 -87 -3z"/>
<path d="M11716 16928 c-23 -32 -20 -55 9 -74 31 -20 70 -12 86 17 9 17 7 26
-8 48 -26 35 -66 39 -87 9z"/>
<path d="M11950 16870 c-11 -11 -20 -27 -20 -35 0 -21 36 -55 58 -55 27 0 62
29 62 51 0 25 -34 59 -60 59 -11 0 -29 -9 -40 -20z"/>
<path d="M12180 16800 c-26 -26 -25 -55 2 -74 43 -30 88 -9 88 41 0 49 -55 68
-90 33z"/>
<path d="M10206 16734 c-23 -24 -26 -35 -26 -95 0 -61 -3 -70 -26 -88 -21 -16
-41 -21 -89 -21 -54 0 -66 -4 -89 -26 -33 -34 -33 -64 0 -97 23 -24 34 -27 91
-26 91 2 110 -17 115 -116 3 -63 7 -77 27 -94 32 -28 66 -26 96 4 22 21 25 33
25 90 0 57 3 69 25 90 21 21 33 25 88 25 50 0 70 5 91 21 35 27 35 73 0 105
-21 20 -36 24 -90 24 -56 0 -68 4 -89 25 -21 21 -25 33 -25 88 0 50 -5 70 -21
91 -27 34 -68 34 -103 0z"/>
<path d="M12408 16729 c-22 -13 -24 -62 -2 -83 32 -33 94 -10 94 35 0 24 -34
59 -57 59 -10 0 -26 -5 -35 -11z"/>
<path d="M12643 16647 c-42 -19 -42 -74 1 -96 42 -23 87 20 71 67 -8 27 -45
41 -72 29z"/>
<path d="M12852 16544 c-20 -14 -33 -62 -13 -50 5 3 8 -1 7 -10 -3 -42 76 -43
90 -1 21 60 -31 99 -84 61z"/>
<path d="M13072 16444 c-40 -28 -16 -94 35 -94 46 0 69 62 35 93 -23 21 -41
21 -70 1z"/>
<path d="M13280 16323 c-24 -31 -23 -40 12 -66 33 -24 62 -16 78 24 11 25 10
32 -5 49 -25 28 -60 25 -85 -7z"/>
<path d="M13486 16210 l-24 -30 -1084 -2 -1083 -3 -77 -37 c-365 -173 -379
-674 -23 -863 108 -58 10 -55 1894 -55 l1731 0 0 -24 c0 -47 46 -70 92 -45 16
8 19 17 14 40 l-5 29 1222 0 c1344 0 1282 -2 1399 63 149 83 248 250 248 417
0 101 -46 231 -103 293 -15 15 -23 27 -20 27 10 0 -44 47 -92 80 -25 17 -45
27 -45 23 0 -4 -4 -3 -8 3 -4 6 -27 19 -52 30 -44 19 -93 19 -1958 22 l-1914
2 -23 28 c-31 37 -59 37 -89 2z m3773 -160 c92 -46 135 -118 136 -225 0 -55
-5 -78 -23 -109 -17 -29 -20 -41 -11 -52 9 -11 13 -11 26 1 13 13 26 4 114
-83 84 -84 99 -104 99 -131 0 -39 -38 -81 -73 -81 -33 0 -73 34 -201 169 -25
26 -27 33 -16 46 23 28 -3 39 -41 19 -40 -21 -159 -45 -159 -33 0 5 -9 9 -20
9 -38 0 -120 50 -149 90 -99 137 -37 345 119 395 57 19 147 12 199 -15z
m-5015 -238 l24 -47 28 47 c29 47 30 47 81 48 l53 0 -55 -90 c-49 -81 -55 -97
-55 -145 l0 -55 -57 0 -58 0 3 54 c3 45 -1 63 -23 100 -15 26 -32 43 -37 39
-7 -4 -8 -1 -4 6 5 7 -3 29 -18 51 l-26 39 53 3 c28 2 55 2 60 0 4 -2 18 -24
31 -50z m450 27 c88 -60 87 -189 -2 -249 -70 -49 -198 -27 -242 42 -16 27 -31
140 -16 131 5 -4 7 1 3 11 -4 9 -3 14 2 11 5 -3 12 3 16 14 6 21 44 49 84 62
44 14 118 4 155 -22z m397 -87 c-3 -131 -19 -165 -84 -183 -67 -18 -126 -5
-164 36 l-33 35 0 110 0 110 53 0 52 0 -3 -87 c-4 -91 8 -133 38 -133 33 0 40
22 40 121 l0 98 48 3 c26 2 49 2 51 0 3 -1 3 -51 2 -110z m864 84 c0 -14 -2
-23 -6 -21 -5 4 -44 -115 -75 -227 -4 -12 -19 -17 -64 -20 l-58 -3 -17 63
c-10 34 -20 64 -24 66 -4 3 -15 -24 -25 -60 l-18 -64 -59 0 -58 0 -41 130
c-22 71 -43 137 -46 145 -5 12 4 15 50 15 l56 0 22 -75 22 -75 23 67 c12 36
20 70 17 75 -3 4 20 8 50 8 l55 0 24 -77 24 -78 24 77 23 77 45 3 c55 4 54 4
56 -26z m858 23 c39 -11 44 -22 25 -64 -10 -22 -16 -25 -37 -19 -38 11 -80 10
-81 -1 -1 -5 20 -16 47 -22 62 -16 93 -33 93 -50 0 -8 4 -12 9 -9 15 9 -9 -77
-26 -96 -25 -28 -84 -41 -144 -34 -51 7 -128 33 -102 35 6 1 17 17 23 36 10
31 14 34 32 24 11 -6 26 -8 34 -5 9 3 12 1 9 -4 -4 -6 9 -10 29 -10 20 0 36 5
36 10 0 12 -5 14 -68 30 -56 14 -82 41 -82 84 0 52 9 67 54 87 46 21 94 24
149 8z m197 -141 l0 -153 -50 3 -50 4 0 143 0 144 48 4 c26 2 48 4 50 5 1 1 2
-67 2 -150z m600 107 l0 -45 -70 0 c-87 0 -93 -18 -8 -22 l63 -3 3 -37 2 -38
-65 0 c-51 0 -65 -3 -65 -15 0 -12 15 -15 76 -15 l75 0 -3 -40 c-2 -22 -6 -40
-10 -40 -5 0 -61 0 -125 0 l-118 0 3 145 3 144 117 4 c64 1 118 4 120 5 1 1 2
-18 2 -43z m-2216 4 c43 -50 42 -114 -1 -162 -15 -16 -14 -20 16 -57 l32 -40
-63 0 c-62 0 -64 1 -82 35 -26 47 -46 46 -46 -2 l0 -38 -50 3 -50 4 0 144 0
145 110 -2 c108 -1 111 -2 134 -30z m838 -9 l-4 -40 -69 0 c-86 0 -91 -18 -6
-22 l62 -3 0 -35 0 -35 -62 -3 c-47 -2 -63 -7 -63 -17 0 -12 16 -15 75 -15
l75 0 0 -39 0 -40 -125 -3 -125 -3 0 148 0 147 123 0 123 0 -4 -40z m297 25
c35 -18 46 -56 27 -93 -13 -24 -12 -30 5 -51 27 -34 24 -77 -7 -106 -26 -24
-33 -25 -148 -25 l-121 0 0 145 0 145 108 0 c75 0 117 -4 136 -15z m803 -25
c-4 -39 -5 -40 -43 -40 l-39 0 0 -104 0 -104 -51 -4 c-28 -1 -53 -1 -55 1 -2
2 -4 51 -4 108 l0 103 -40 0 -40 0 0 40 0 40 138 0 138 0 -4 -40z"/>
<path d="M17065 15979 c-120 -61 -126 -230 -12 -301 46 -29 104 -36 150 -19
38 15 99 72 93 88 -3 8 -2 12 3 9 20 -13 28 84 11 129 -11 30 -65 87 -97 104
-34 17 -104 13 -148 -10z"/>
<path d="M12555 15755 c-28 -27 -29 -33 -15 -69 25 -68 110 -50 110 23 0 67
-50 92 -95 46z"/>
<path d="M13252 15753 c3 -24 8 -28 33 -28 25 0 30 4 30 25 0 21 -5 26 -33 28
-31 3 -33 2 -30 -25z"/>
<path d="M14390 15765 c0 -12 8 -16 33 -13 17 2 32 8 32 13 0 6 -15 11 -32 13
-25 3 -33 -1 -33 -13z"/>
<path d="M14390 15671 c0 -18 6 -21 41 -21 33 0 40 3 37 18 -2 12 -14 18 -41
20 -32 3 -37 0 -37 -17z"/>
<path d="M15006 15064 c-21 -21 -20 -57 2 -77 37 -34 92 -11 92 38 0 13 -7 31
-16 39 -8 9 -26 16 -39 16 -13 0 -31 -7 -39 -16z"/>
<path d="M4912 15053 c-47 -19 -25 -103 28 -103 32 0 50 22 50 64 0 35 -39 55
-78 39z"/>
<path d="M15176 14894 c-19 -18 -21 -65 -4 -82 29 -29 98 -1 98 40 0 19 -42
58 -62 58 -9 0 -24 -7 -32 -16z"/>
<path d="M4737 14872 c-20 -22 -22 -63 -5 -80 16 -16 66 -15 84 2 21 21 17 50
-9 74 -28 27 -49 28 -70 4z"/>
<path d="M16810 14752 c-59 -26 -96 -91 -85 -148 8 -46 49 -92 95 -105 115
-35 213 95 150 198 -31 52 -108 78 -160 55z m100 -72 c31 -31 30 -72 -3 -107
-27 -31 -71 -30 -102 2 -30 30 -32 64 -4 99 26 33 79 36 109 6z"/>
<path d="M15338 14719 c-37 -21 -10 -99 34 -99 23 0 58 35 58 58 0 22 -35 52
-60 52 -8 0 -23 -5 -32 -11z"/>
<path d="M4582 14694 c-27 -18 -29 -55 -4 -77 26 -23 58 -21 76 5 21 29 20 51
-2 71 -23 21 -41 21 -70 1z"/>
<path d="M5342 14668 c-7 -7 -12 -29 -12 -51 0 -62 -13 -77 -68 -77 -53 0 -72
-12 -72 -47 0 -28 27 -43 79 -43 46 0 61 -18 61 -70 0 -41 16 -70 40 -70 29 0
48 26 48 64 0 63 9 76 53 76 22 0 48 4 58 10 51 27 23 80 -41 80 -50 0 -68 18
-68 69 0 58 -45 92 -78 59z"/>
<path d="M15490 14530 c-24 -24 -25 -38 -4 -68 18 -26 41 -28 72 -6 28 19 28
48 0 74 -27 25 -43 25 -68 0z"/>
<path d="M4425 14505 c-29 -29 -30 -33 -7 -61 26 -33 57 -39 81 -15 26 26 27
55 1 81 -26 26 -46 25 -75 -5z"/>
<path d="M15635 14340 c-15 -16 -17 -26 -9 -47 14 -40 39 -51 72 -33 34 20 39
53 13 79 -27 27 -53 27 -76 1z"/>
<path d="M4282 14324 c-12 -8 -22 -26 -22 -39 0 -25 33 -55 61 -55 20 0 49 31
49 53 0 20 -34 57 -53 57 -7 0 -23 -7 -35 -16z"/>
<path d="M15780 14148 c-24 -26 -25 -37 -4 -66 28 -40 94 -24 94 23 0 25 -34
65 -55 65 -8 0 -23 -10 -35 -22z"/>
<path d="M4142 14134 c-27 -19 -29 -64 -4 -87 25 -23 39 -21 67 8 30 29 31 49
5 75 -24 24 -38 25 -68 4z"/>
<path d="M2944 13956 l-34 -34 0 -101 0 -101 -100 0 c-96 0 -101 -1 -132 -29
-33 -29 -33 -31 -36 -130 l-4 -101 125 0 c69 0 138 -5 154 -11 15 -5 70 -51
121 -102 l92 -92 526 -5 526 -5 29 -33 29 -32 0 -355 0 -355 101 0 101 0 34
34 c34 34 34 34 34 129 l0 95 98 4 c180 8 172 -17 172 538 l0 442 -34 34 -34
34 -500 0 c-330 0 -510 4 -529 11 -15 6 -71 53 -124 105 l-96 94 -243 0 -242
0 -34 -34z"/>
<path d="M15911 13946 c-27 -29 -22 -57 14 -76 21 -11 29 -11 50 0 33 17 40
45 21 75 -21 32 -56 32 -85 1z"/>
<path d="M4001 13924 c-12 -15 -21 -30 -21 -34 0 -17 43 -60 59 -60 45 0 67
72 33 103 -26 24 -47 21 -71 -9z"/>
<path d="M5892 13842 c-73 -69 -56 -184 33 -227 68 -31 152 2 181 71 18 44 18
68 -3 111 -23 48 -66 73 -129 73 -43 0 -57 -5 -82 -28z"/>
<path d="M6745 13863 c-23 -6 -62 -40 -77 -66 -14 -27 -18 -57 -7 -57 5 0 9
11 9 24 0 14 5 28 10 31 13 8 2 -44 -12 -62 -15 -18 -2 -58 27 -87 77 -77 219
-11 214 98 -3 50 -8 62 -21 45 -7 -11 -8 -10 -4 4 14 45 -70 87 -139 70z m62
-9 c-3 -3 -12 -4 -19 -1 -8 3 -5 6 6 6 11 1 17 -2 13 -5z m-92 -61 c-1 -27 -6
-56 -10 -66 -11 -25 2 -67 19 -61 8 3 17 0 21 -6 5 -8 -1 -11 -16 -8 -13 1
-28 13 -34 26 -5 12 -13 22 -17 22 -5 0 -8 8 -8 17 0 9 3 14 6 10 4 -3 14 1
23 10 11 11 12 18 4 20 -7 3 -10 10 -8 16 2 7 6 24 9 40 9 41 14 33 11 -20z
m92 25 c-3 -8 -6 -5 -6 6 -1 11 2 17 5 13 3 -3 4 -12 1 -19z m75 -144 c-6 -11
-11 -13 -16 -5 -4 6 -2 11 3 11 6 0 11 8 12 18 0 9 3 12 5 5 3 -7 1 -20 -4
-29z m-37 -33 c-12 -12 -18 -12 -47 2 -27 14 -29 17 -11 17 12 0 25 4 28 10 4
6 13 5 25 -3 17 -10 18 -14 5 -26z m-60 -11 c3 -5 2 -10 -4 -10 -5 0 -13 5
-16 10 -3 6 -2 10 4 10 5 0 13 -4 16 -10z"/>
<path d="M6810 13650 c0 -5 4 -10 9 -10 6 0 13 5 16 10 3 6 -1 10 -9 10 -9 0
-16 -4 -16 -10z"/>
<path d="M16060 13763 c-19 -8 -39 -34 -40 -50 0 -21 38 -53 64 -53 24 0 56
32 56 55 0 16 -39 55 -53 54 -7 0 -19 -3 -27 -6z"/>
<path d="M16163 13546 c-27 -24 -27 -26 -13 -52 23 -41 44 -51 74 -34 32 17
41 42 25 72 -24 45 -46 48 -86 14z"/>
<path d="M16292 13348 c-41 -20 -41 -76 1 -102 12 -8 23 -5 44 10 37 27 42 67
11 88 -26 18 -25 18 -56 4z"/>
<path d="M16388 13126 c-37 -28 -10 -96 39 -96 25 0 53 30 53 58 0 22 -34 52
-60 52 -8 0 -23 -7 -32 -14z"/>
<path d="M15723 12914 c-18 -9 -42 -31 -53 -49 -19 -31 -20 -49 -20 -407 0
-373 0 -375 23 -409 47 -71 33 -69 605 -69 321 0 512 -4 512 -10 0 -17 43 -50
65 -50 23 0 55 28 55 48 0 9 166 12 675 12 746 0 731 -1 778 64 22 31 22 34
22 413 0 370 -1 382 -21 410 -11 15 -36 36 -55 45 -32 17 -114 18 -1294 18
-1134 0 -1263 -2 -1292 -16z m797 -454 l0 -320 -320 0 -320 0 0 320 0 320 320
0 320 0 0 -320z m1600 255 l0 -45 -700 0 -700 0 0 45 0 45 700 0 700 0 0 -45z
m-220 -170 l0 -45 -590 0 -590 0 0 45 0 45 590 0 590 0 0 -45z m220 -170 l0
-45 -700 0 -700 0 0 45 0 45 700 0 700 0 0 -45z m-672 -172 l3 -43 -365 0
-366 0 0 45 0 45 363 -2 362 -3 3 -42z"/>
<path d="M6210 12715 l0 -85 33 0 c28 0 33 -4 33 -22 -1 -17 5 -23 19 -23 13
0 21 8 23 23 3 17 10 22 33 22 27 0 29 3 29 35 0 30 3 34 23 32 16 -1 22 3 22
18 0 13 -8 21 -22 23 -18 3 -23 10 -23 33 l0 29 -85 0 -85 0 0 -85z"/>
<path d="M7760 12715 l0 -85 85 0 85 0 0 85 0 85 -85 0 -85 0 0 -85z"/>
<path d="M9310 12770 c0 -17 -5 -30 -12 -30 -7 0 -19 -4 -27 -9 -12 -8 -12
-12 -2 -25 7 -8 19 -12 27 -9 10 4 14 -4 14 -31 0 -33 2 -36 29 -36 23 0 30
-5 33 -22 2 -15 10 -23 23 -23 14 0 20 6 19 23 0 18 5 22 33 22 l33 0 0 85 0
85 -85 0 -85 0 0 -30z"/>
<path d="M6484 12725 c-4 -9 -2 -21 3 -26 14 -14 45 1 41 20 -4 22 -37 26 -44
6z"/>
<path d="M6594 12725 c-4 -9 -2 -21 3 -26 14 -14 45 1 41 20 -4 22 -37 26 -44
6z"/>
<path d="M6704 12729 c-10 -17 23 -46 37 -32 7 7 9 19 6 27 -7 18 -33 21 -43
5z"/>
<path d="M6804 12729 c-3 -6 0 -17 8 -25 13 -13 16 -13 27 0 7 8 10 20 6 26
-8 13 -32 13 -41 -1z"/>
<path d="M6914 12725 c-4 -9 -2 -21 3 -26 14 -14 45 1 41 20 -4 22 -37 26 -44
6z"/>
<path d="M7024 12729 c-10 -17 23 -46 37 -32 7 7 9 19 6 27 -7 18 -33 21 -43
5z"/>
<path d="M7134 12729 c-3 -6 0 -17 8 -25 13 -13 16 -13 27 0 7 8 10 20 6 26
-8 13 -32 13 -41 -1z"/>
<path d="M7234 12725 c-4 -9 -2 -21 3 -26 14 -14 45 1 41 20 -4 22 -37 26 -44
6z"/>
<path d="M7344 12729 c-10 -17 23 -46 37 -32 7 7 9 19 6 27 -7 18 -33 21 -43
5z"/>
<path d="M7454 12729 c-3 -6 0 -17 8 -25 13 -13 16 -13 27 0 7 8 10 20 6 26
-8 13 -32 13 -41 -1z"/>
<path d="M7554 12725 c-4 -9 -2 -21 3 -26 14 -14 45 1 41 20 -4 22 -37 26 -44
6z"/>
<path d="M7664 12729 c-10 -17 23 -46 37 -32 7 7 9 19 6 27 -7 18 -33 21 -43
5z"/>
<path d="M7991 12731 c-14 -9 -9 -41 7 -41 15 0 34 28 27 40 -8 12 -16 13 -34
1z"/>
<path d="M8094 12725 c-4 -10 -1 -21 7 -26 20 -12 34 -5 34 17 0 24 -33 31
-41 9z"/>
<path d="M8201 12731 c-12 -8 -13 -12 -1 -26 12 -14 15 -14 28 -1 8 8 11 19 8
25 -9 13 -16 14 -35 2z"/>
<path d="M8303 12724 c-3 -8 -1 -20 6 -27 14 -14 47 15 37 32 -10 16 -36 13
-43 -5z"/>
<path d="M8414 12725 c-4 -10 -1 -21 7 -26 20 -12 34 -5 34 17 0 24 -33 31
-41 9z"/>
<path d="M8524 12729 c-3 -6 0 -17 8 -25 13 -13 16 -13 27 0 7 8 10 20 6 26
-8 13 -32 13 -41 -1z"/>
<path d="M8623 12724 c-3 -8 -1 -20 6 -27 14 -14 47 15 37 32 -10 16 -36 13
-43 -5z"/>
<path d="M8734 12725 c-4 -10 -1 -21 7 -26 20 -12 34 -5 34 17 0 24 -33 31
-41 9z"/>
<path d="M8844 12725 c-4 -9 -2 -21 4 -27 15 -15 44 -1 40 19 -4 23 -36 29
-44 8z"/>
<path d="M8943 12724 c-3 -8 -1 -20 6 -27 14 -14 47 15 37 32 -10 16 -36 13
-43 -5z"/>
<path d="M9054 12725 c-4 -9 -2 -21 3 -26 14 -14 45 1 41 20 -4 22 -37 26 -44
6z"/>
<path d="M9164 12725 c-4 -9 -2 -21 4 -27 15 -15 44 -1 40 19 -4 23 -36 29
-44 8z"/>
<path d="M10020 12430 l0 -110 495 0 495 0 0 110 0 110 -495 0 -495 0 0 -110z"/>
<path d="M11100 12430 l0 -110 385 0 385 0 0 110 0 110 -385 0 -385 0 0 -110z"/>
<path d="M11950 12430 l0 -110 305 0 305 0 0 110 0 110 -305 0 -305 0 0 -110z"/>
<path d="M6276 12521 c-10 -16 5 -42 23 -39 21 4 21 42 -1 46 -9 2 -19 -1 -22
-7z"/>
<path d="M9374 12515 c-4 -9 -2 -21 4 -27 15 -15 44 -1 40 19 -4 23 -36 29
-44 8z"/>
<path d="M6280 12405 c-10 -11 -10 -19 -2 -27 15 -15 44 -2 40 19 -4 23 -22
27 -38 8z"/>
<path d="M9374 12405 c-7 -18 3 -35 21 -35 21 0 28 19 15 35 -16 19 -29 19
-36 0z"/>
<path d="M6280 12305 c-10 -11 -10 -19 -2 -27 15 -15 44 -2 40 19 -4 23 -22
27 -38 8z"/>
<path d="M9373 12304 c-9 -23 13 -40 32 -24 12 10 13 16 4 26 -15 18 -28 18
-36 -2z"/>
<path d="M6276 12201 c-10 -16 5 -42 23 -39 21 4 21 42 -1 46 -9 2 -19 -1 -22
-7z"/>
<path d="M9374 12195 c-4 -9 -2 -21 4 -27 15 -15 44 -1 40 19 -4 23 -36 29
-44 8z"/>
<path d="M3164 12173 c-6 -20 -2 -31 16 -45 31 -25 61 -19 80 14 19 35 7 48
-48 53 -38 4 -42 2 -48 -22z"/>
<path d="M6280 12085 c-10 -11 -10 -19 -2 -27 15 -15 44 -2 40 19 -4 23 -22
27 -38 8z"/>
<path d="M9374 12085 c-7 -18 3 -35 21 -35 21 0 28 19 15 35 -16 19 -29 19
-36 0z"/>
<path d="M10020 11920 l0 -110 185 0 185 0 0 110 0 110 -185 0 -185 0 0 -110z"/>
<path d="M10510 11920 l0 -110 1025 0 1025 0 0 110 0 110 -1025 0 -1025 0 0
-110z"/>
<path d="M3110 11978 c-25 -27 -26 -60 -2 -81 24 -22 55 -21 75 1 21 23 22 51
1 80 -19 28 -48 28 -74 0z"/>
<path d="M6274 11985 c-4 -10 -1 -21 7 -26 20 -12 34 -5 34 17 0 24 -33 31
-41 9z"/>
<path d="M9374 11985 c-4 -9 -2 -21 3 -26 14 -14 45 1 41 20 -4 22 -37 26 -44
6z"/>
<path d="M6281 11881 c-19 -12 -6 -43 16 -39 10 2 18 12 18 22 0 22 -14 29
-34 17z"/>
<path d="M9374 11875 c-7 -18 3 -35 22 -35 20 0 30 30 13 41 -20 12 -29 11
-35 -6z"/>
<path d="M16882 11784 c-40 -28 -16 -94 35 -94 46 0 69 62 35 93 -23 21 -41
21 -70 1z"/>
<path d="M6277 11776 c-8 -20 20 -43 35 -28 14 14 3 42 -16 42 -7 0 -16 -6
-19 -14z"/>
<path d="M9373 11774 c-3 -8 -1 -20 5 -26 15 -15 43 8 35 28 -7 19 -32 18 -40
-2z"/>
<path d="M3062 11758 c-24 -12 -38 -48 -28 -73 3 -8 17 -20 30 -27 58 -26 106
60 54 96 -26 18 -25 18 -56 4z"/>
<path d="M6274 11665 c-4 -10 -1 -21 7 -26 20 -12 34 -5 34 17 0 24 -33 31
-41 9z"/>
<path d="M9374 11665 c-4 -9 -2 -21 3 -26 14 -14 45 1 41 20 -4 22 -37 26 -44
6z"/>
<path d="M15720 11662 c-70 -37 -71 -41 -68 -471 l3 -383 38 -33 c21 -18 52
-35 69 -39 17 -3 587 -6 1267 -6 1203 0 1237 1 1279 20 33 15 47 29 62 62 18
40 20 68 20 384 l0 341 -57 7 c-75 8 -152 46 -197 96 l-36 40 -1173 0 c-1118
0 -1174 -1 -1207 -18z m623 -166 c61 -29 114 -82 149 -148 32 -61 33 -213 1
-273 -35 -66 -88 -119 -149 -150 -51 -26 -70 -30 -139 -30 -100 1 -162 26
-228 93 -66 67 -91 129 -91 223 -1 68 3 84 34 145 40 77 104 134 180 159 69
23 176 14 243 -19z m1777 -31 l0 -45 -620 0 -620 0 0 45 0 45 620 0 620 0 0
-45z m0 -170 l0 -45 -700 0 -700 0 0 45 0 45 700 0 700 0 0 -45z m0 -170 l0
-45 -540 0 -540 0 0 45 0 45 540 0 540 0 0 -45z m-675 -170 l0 -40 -362 -3
-363 -2 0 45 0 45 363 -2 362 -3 0 -40z"/>
<path d="M16100 11205 c0 -91 3 -125 12 -125 21 0 198 110 198 123 0 15 -172
127 -194 127 -14 0 -16 -18 -16 -125z"/>
<path d="M2153 11579 c-59 -17 -73 -49 -73 -160 l0 -99 -90 0 c-154 0 -180
-25 -180 -175 l0 -100 -84 3 c-65 3 -94 -1 -122 -14 -65 -31 -64 -23 -64 -614
0 -568 -1 -559 50 -605 21 -19 38 -20 628 -23 588 -3 607 -3 624 -22 24 -25
40 -25 63 0 17 19 31 20 207 20 212 0 244 7 278 62 16 26 20 50 20 121 l0 87
90 0 c151 0 180 29 180 180 l0 90 98 0 c74 0 103 4 121 16 49 35 51 52 51 506
0 474 0 476 -70 510 -32 16 -79 18 -539 18 l-504 0 -97 95 c-63 62 -109 99
-131 105 -42 12 -413 11 -456 -1z m342 -1192 c98 -63 131 -90 136 -110 4 -15
4 -25 -1 -22 -4 3 -64 -29 -134 -71 -69 -42 -133 -74 -143 -72 -16 3 -18 19
-21 172 -2 165 1 185 29 186 3 0 64 -37 134 -83z"/>
<path d="M6281 11561 c-19 -12 -6 -43 16 -39 10 2 18 12 18 22 0 22 -14 29
-34 17z"/>
<path d="M9374 11555 c-7 -18 3 -35 22 -35 20 0 30 30 13 41 -20 12 -29 11
-35 -6z"/>
<path d="M2985 11510 c-22 -25 -14 -62 19 -79 47 -26 99 16 75 62 -23 42 -64
50 -94 17z"/>
<path d="M10020 11405 l0 -115 518 2 517 3 0 110 0 110 -517 3 -518 2 0 -115z"/>
<path d="M11150 11405 l0 -115 480 0 480 0 0 115 0 115 -480 0 -480 0 0 -115z"/>
<path d="M12210 11405 l0 -115 173 2 172 3 0 110 0 110 -172 3 -173 2 0 -115z"/>
<path d="M6274 11459 c-10 -17 23 -46 37 -32 7 7 9 19 6 27 -7 18 -33 21 -43
5z"/>
<path d="M9373 11454 c-3 -8 -1 -20 6 -27 14 -14 47 15 37 32 -10 16 -36 13
-43 -5z"/>
<path d="M6276 11344 c-4 -10 -2 -22 3 -27 14 -14 43 0 39 20 -4 24 -34 28
-42 7z"/>
<path d="M9374 11345 c-4 -9 -2 -21 4 -27 15 -15 44 -1 40 19 -4 23 -36 29
-44 8z"/>
<path d="M6280 11245 c-10 -11 -10 -19 -2 -27 15 -15 44 -2 40 19 -4 23 -22
27 -38 8z"/>
<path d="M9374 11245 c-7 -18 3 -35 21 -35 18 0 26 25 12 39 -15 15 -27 14
-33 -4z"/>
<path d="M6274 11139 c-10 -17 23 -46 37 -32 7 7 9 19 6 27 -7 18 -33 21 -43
5z"/>
<path d="M9373 11134 c-3 -8 -1 -20 6 -27 14 -14 47 15 37 32 -10 16 -36 13
-43 -5z"/>
<path d="M6276 11024 c-4 -10 -2 -22 3 -27 14 -14 43 0 39 20 -4 24 -34 28
-42 7z"/>
<path d="M9374 11025 c-4 -9 -2 -21 4 -27 15 -15 44 -1 40 19 -4 23 -36 29
-44 8z"/>
<path d="M10020 10890 l0 -110 315 0 315 0 0 110 0 110 -315 0 -315 0 0 -110z"/>
<path d="M10750 10890 l0 -110 420 0 420 0 0 110 0 110 -420 0 -420 0 0 -110z"/>
<path d="M6276 10931 c-3 -5 -3 -16 0 -25 5 -13 -1 -16 -30 -16 l-36 0 0 -85
0 -85 34 0 c26 0 33 -4 32 -17 -2 -26 34 -29 41 -4 4 15 13 21 34 21 l29 0 0
85 0 85 -29 0 c-23 0 -30 5 -33 22 -3 24 -32 36 -42 19z"/>
<path d="M9377 10934 c-4 -4 -7 -16 -7 -26 0 -13 -8 -18 -30 -18 l-30 0 0 -85
0 -85 29 0 c20 0 30 -6 34 -20 9 -34 44 -23 38 13 0 4 15 7 34 7 l35 0 0 85 0
85 -33 0 c-28 0 -33 4 -33 22 1 22 -23 36 -37 22z"/>
<path d="M17092 10623 c-18 -7 -43 -59 -36 -76 10 -27 49 -40 75 -27 13 7 27
18 31 24 11 16 -1 49 -26 68 -22 19 -24 19 -44 11z"/>
<path d="M6276 10611 c-10 -16 5 -42 23 -39 21 4 21 42 -1 46 -9 2 -19 -1 -22
-7z"/>
<path d="M9374 10605 c-4 -9 -2 -21 3 -26 14 -14 45 1 41 20 -4 22 -37 26 -44
6z"/>
<path d="M6281 10501 c-19 -12 -6 -43 16 -39 10 2 18 12 18 22 0 22 -14 29
-34 17z"/>
<path d="M9374 10495 c-7 -18 3 -35 22 -35 20 0 30 30 13 41 -20 12 -29 11
-35 -6z"/>
<path d="M15723 10414 c-18 -9 -42 -31 -53 -49 -19 -31 -20 -49 -20 -406 0
-353 1 -376 20 -406 43 -72 0 -68 738 -71 567 -2 666 -5 679 -17 18 -19 38
-19 56 0 13 12 99 15 578 17 542 3 565 4 597 23 18 11 41 38 52 60 19 39 20
63 20 393 0 381 -1 393 -55 442 l-27 25 -1276 2 c-1155 2 -1280 1 -1309 -13z
m797 -454 l0 -320 -320 0 -320 0 0 320 0 320 320 0 320 0 0 -320z m1600 255
l0 -45 -697 2 -698 3 -3 43 -3 42 700 0 701 0 0 -45z m-180 -170 l0 -45 -610
0 -610 0 0 45 0 45 610 0 610 0 0 -45z m60 -170 l0 -45 -640 0 -640 0 0 45 0
45 640 0 640 0 0 -45z m-550 -170 l0 -45 -365 0 -365 0 0 45 0 45 365 0 365 0
0 -45z"/>
<path d="M6274 10395 c-4 -10 -1 -21 7 -26 20 -12 34 -5 34 17 0 24 -33 31
-41 9z"/>
<path d="M9373 10394 c-3 -8 -1 -20 6 -27 14 -14 47 15 37 32 -10 16 -36 13
-43 -5z"/>
<path d="M10020 10250 l0 -110 495 0 495 0 0 110 0 110 -495 0 -495 0 0 -110z"/>
<path d="M11100 10250 l0 -110 385 0 385 0 0 110 0 110 -385 0 -385 0 0 -110z"/>
<path d="M11950 10250 l0 -110 305 0 305 0 0 110 0 110 -305 0 -305 0 0 -110z"/>
<path d="M6280 10285 c-10 -11 -10 -19 -2 -27 15 -15 44 -2 40 19 -4 23 -22
27 -38 8z"/>
<path d="M9374 10285 c-7 -18 3 -35 21 -35 21 0 28 19 15 35 -16 19 -29 19
-36 0z"/>
<path d="M6276 10184 c-4 -10 -1 -21 6 -26 19 -11 33 -4 33 18 0 24 -30 30
-39 8z"/>
<path d="M9374 10185 c-6 -15 2 -35 14 -35 18 1 32 18 26 33 -8 21 -33 22 -40
2z"/>
<path d="M6274 10075 c-4 -10 -1 -21 7 -26 20 -12 34 -5 34 17 0 24 -33 31
-41 9z"/>
<path d="M9373 10074 c-3 -8 -1 -20 6 -27 14 -14 47 15 37 32 -10 16 -36 13
-43 -5z"/>
<path d="M6280 9965 c-10 -11 -10 -19 -2 -27 15 -15 44 -2 40 19 -4 23 -22 27
-38 8z"/>
<path d="M9374 9965 c-7 -18 3 -35 21 -35 21 0 28 19 15 35 -16 19 -29 19 -36
0z"/>
<path d="M6274 9865 c-4 -10 -1 -21 7 -26 20 -12 34 -5 34 17 0 24 -33 31 -41
9z"/>
<path d="M9373 9864 c-3 -8 -1 -20 6 -27 14 -14 47 15 37 32 -10 16 -36 13
-43 -5z"/>
<path d="M10020 9710 l0 -110 520 0 520 0 0 110 0 110 -520 0 -520 0 0 -110z"/>
<path d="M11150 9710 l0 -110 480 0 480 0 0 110 0 110 -480 0 -480 0 0 -110z"/>
<path d="M12210 9710 l0 -110 175 0 175 0 0 110 0 110 -175 0 -175 0 0 -110z"/>
<path d="M8070 9781 c-19 -10 -45 -33 -57 -51 -22 -32 -23 -42 -23 -239 0
-236 6 -259 75 -298 40 -22 43 -23 458 -23 465 0 463 0 513 66 l29 37 3 196
c3 188 2 198 -20 241 -13 25 -38 55 -57 67 -34 23 -34 23 -460 23 -396 0 -429
-1 -461 -19z m406 -110 c-23 -26 -17 -65 10 -69 11 -2 27 4 34 13 18 22 30 19
30 -9 0 -34 -37 -76 -67 -76 -37 0 -179 -140 -187 -185 -11 -59 -84 -95 -127
-62 -21 16 -39 51 -39 75 0 31 38 72 68 72 37 0 192 155 192 192 0 32 42 68
78 68 24 0 24 -1 8 -19z m395 -4 c20 -15 39 -51 39 -72 0 -9 -27 -45 -61 -80
-51 -53 -65 -63 -92 -61 -24 1 -32 -3 -32 -16 0 -27 -11 -31 -37 -14 -14 9
-29 13 -34 9 -5 -5 -6 -4 -1 1 4 5 0 20 -8 33 -18 27 -12 45 11 36 21 -8 34
15 24 42 -7 19 1 31 52 79 63 59 103 71 139 43z"/>
<path d="M8325 9480 c-10 -11 -15 -23 -12 -27 8 -7 47 25 47 39 0 14 -16 9
-35 -12z"/>
<path d="M8186 9364 c-9 -23 10 -43 35 -37 14 4 19 12 17 27 -4 26 -43 34 -52
10z"/>
<path d="M4666 9766 c-30 -30 -33 -66 -8 -89 42 -38 112 -5 112 52 0 32 -13
46 -52 56 -21 5 -33 1 -52 -19z"/>
<path d="M6280 9755 c-10 -11 -10 -19 -2 -27 15 -15 44 -2 40 19 -4 23 -22 27
-38 8z"/>
<path d="M9374 9755 c-7 -18 3 -35 22 -35 20 0 30 30 13 41 -20 12 -29 11 -35
-6z"/>
<path d="M1329 9641 c-39 -40 -40 -87 -1 -124 72 -69 183 14 137 102 -29 57
-91 66 -136 22z"/>
<path d="M6280 9655 c-12 -14 -11 -18 1 -26 20 -12 34 -6 34 16 0 24 -19 30
-35 10z"/>
<path d="M9373 9654 c-3 -8 -1 -20 5 -26 15 -15 43 8 35 28 -7 19 -32 18 -40
-2z"/>
<path d="M2847 9612 c-23 -26 -21 -58 5 -76 29 -21 51 -20 71 2 22 25 21 48
-3 72 -25 25 -52 26 -73 2z"/>
<path d="M6274 9545 c-4 -10 -1 -21 7 -26 20 -12 34 -5 34 17 0 24 -33 31 -41
9z"/>
<path d="M9373 9544 c-3 -8 -1 -20 6 -27 14 -14 47 15 37 32 -10 16 -36 13
-43 -5z"/>
<path d="M4381 9481 c-54 -53 -57 -60 -40 -94 15 -28 28 -37 56 -37 30 0 86
48 78 69 -3 8 -3 12 1 8 11 -11 34 13 34 37 -1 29 -21 53 -52 61 -21 5 -34 -2
-77 -44z"/>
<path d="M6280 9440 c-13 -8 -13 -11 2 -27 21 -20 45 -5 35 21 -7 18 -16 20
-37 6z"/>
<path d="M9373 9434 c-10 -26 14 -41 35 -21 15 16 15 19 2 27 -21 14 -30 12
-37 -6z"/>
<path d="M2862 9367 c-28 -29 -28 -38 1 -65 30 -28 62 -28 81 0 21 29 20 51
-2 71 -26 23 -55 21 -80 -6z"/>
<path d="M6274 9339 c-10 -17 23 -46 37 -32 7 7 9 19 6 27 -7 18 -33 21 -43 5z"/>
<path d="M9373 9334 c-3 -8 -1 -20 6 -27 14 -14 47 15 37 32 -10 16 -36 13
-43 -5z"/>
<path d="M18360 9215 c-74 -74 -140 -135 -147 -135 -7 0 -36 23 -65 50 l-52
50 -1175 0 c-1135 0 -1177 -1 -1205 -19 -15 -10 -37 -32 -47 -47 -18 -27 -19
-53 -19 -404 0 -354 1 -377 20 -407 10 -18 34 -40 52 -50 31 -17 99 -18 1298
-18 l1265 0 35 22 c66 41 65 31 68 424 l3 356 -61 7 -61 7 20 27 c11 15 69 76
130 136 86 85 108 112 100 123 -6 7 -14 13 -18 13 -3 0 -67 -61 -141 -135z
m-2015 -217 c101 -53 165 -148 173 -259 10 -138 -54 -251 -175 -311 -58 -28
-77 -33 -143 -32 -92 0 -148 23 -219 89 -85 80 -119 199 -86 310 30 105 94
176 192 216 70 28 190 22 258 -13z m1635 -33 l0 -45 -590 0 -590 0 0 45 0 45
590 0 590 0 0 -45z m-392 -167 l-3 -43 -432 -3 -433 -2 0 45 0 45 436 0 435 0
-3 -42z m532 -173 l0 -45 -700 0 -700 0 0 45 0 45 700 0 700 0 0 -45z m-672
-167 l-3 -43 -362 -3 -363 -2 0 45 0 45 366 0 365 0 -3 -42z"/>
<path d="M16100 8725 c0 -96 3 -125 13 -125 22 0 192 105 194 120 3 16 -167
130 -193 130 -11 0 -14 -23 -14 -125z"/>
<path d="M17061 9309 c-29 -31 -27 -65 4 -85 22 -14 30 -15 50 -4 35 19 41 47
17 79 -25 34 -46 37 -71 10z"/>
<path d="M4170 9272 c-19 -20 -34 -40 -32 -44 1 -5 -2 -7 -6 -5 -11 3 -78 -64
-74 -75 1 -4 -2 -7 -6 -5 -11 3 -78 -64 -75 -75 2 -4 -1 -7 -5 -5 -11 3 -78
-64 -74 -75 1 -4 -2 -7 -6 -6 -11 4 -78 -63 -74 -74 1 -4 -2 -7 -7 -6 -12 4
-91 -80 -91 -97 0 -23 46 -65 70 -65 15 0 97 76 254 233 128 127 238 242 245
255 9 17 9 27 0 45 -27 50 -71 50 -119 -1z"/>
<path d="M10020 9200 l0 -110 315 0 315 0 0 110 0 110 -315 0 -315 0 0 -110z"/>
<path d="M10750 9200 l0 -110 420 0 420 0 0 110 0 110 -420 0 -420 0 0 -110z"/>
<path d="M6281 9231 c-19 -12 -6 -43 16 -39 10 2 18 12 18 22 0 22 -14 29 -34
17z"/>
<path d="M9374 9225 c-7 -18 3 -35 21 -35 21 0 28 19 15 35 -16 19 -29 19 -36
0z"/>
<path d="M2895 9135 c-14 -13 -25 -31 -25 -39 0 -18 39 -56 57 -56 17 0 63 44
63 60 0 14 -46 60 -60 60 -6 0 -22 -11 -35 -25z"/>
<path d="M6280 9125 c-10 -11 -10 -19 -2 -27 15 -15 44 -2 40 19 -4 23 -22 27
-38 8z"/>
<path d="M9374 9125 c-6 -15 2 -35 14 -35 4 0 13 4 21 9 12 8 12 12 2 25 -17
20 -30 20 -37 1z"/>
<path d="M6275 9020 c-3 -5 -3 -14 0 -20 4 -6 -8 -10 -29 -10 l-36 0 0 -90 0
-90 85 0 85 0 0 35 c0 30 3 34 23 32 16 -1 22 3 22 18 0 15 -6 19 -22 18 -20
-2 -23 2 -23 37 0 37 -2 40 -29 40 -20 0 -30 6 -34 20 -5 21 -31 27 -42 10z"/>
<path d="M9373 9011 c-4 -15 -13 -21 -34 -21 -27 0 -29 -2 -29 -41 0 -32 -3
-40 -15 -36 -18 7 -27 -6 -19 -27 5 -13 9 -14 20 -5 12 9 14 4 14 -30 l0 -41
85 0 85 0 0 90 0 90 -34 0 c-26 0 -33 4 -32 17 2 26 -34 29 -41 4z"/>
<path d="M7760 8900 l0 -90 85 0 85 0 0 90 0 90 -85 0 -85 0 0 -90z"/>
<path d="M2925 8894 c-31 -33 -31 -39 0 -69 30 -31 42 -31 71 1 30 31 30 45 1
72 -30 28 -43 28 -72 -4z"/>
<path d="M6483 8904 c-3 -8 -1 -20 6 -27 14 -14 47 15 37 32 -10 16 -36 13
-43 -5z"/>
<path d="M6593 8904 c-10 -26 14 -41 35 -21 15 16 15 19 2 27 -21 14 -30 12
-37 -6z"/>
<path d="M6707 8906 c-8 -20 20 -43 35 -28 14 14 3 42 -16 42 -7 0 -16 -6 -19
-14z"/>
<path d="M6815 8910 c-10 -17 12 -37 25 -24 8 8 6 15 -4 23 -10 9 -16 9 -21 1z"/>
<path d="M6913 8904 c-10 -26 14 -41 35 -21 15 16 15 19 2 27 -21 14 -30 12
-37 -6z"/>
<path d="M7027 8906 c-8 -20 20 -43 35 -28 14 14 3 42 -16 42 -7 0 -16 -6 -19
-14z"/>
<path d="M7140 8910 c-12 -7 -12 -12 -2 -22 9 -9 15 -9 24 0 8 8 9 15 2 22 -5
5 -15 6 -24 0z"/>
<path d="M7233 8904 c-10 -26 14 -41 35 -21 15 16 15 19 2 27 -21 14 -30 12
-37 -6z"/>
<path d="M7347 8906 c-8 -20 20 -43 35 -28 14 14 3 42 -16 42 -7 0 -16 -6 -19
-14z"/>
<path d="M7460 8910 c-12 -7 -12 -12 -2 -22 9 -9 15 -9 24 0 8 8 9 15 2 22 -5
5 -15 6 -24 0z"/>
<path d="M7553 8904 c-10 -26 14 -41 35 -21 15 16 15 19 2 27 -21 14 -30 12
-37 -6z"/>
<path d="M7667 8906 c-8 -20 20 -43 35 -28 14 14 3 42 -16 42 -7 0 -16 -6 -19
-14z"/>
<path d="M7983 8904 c-3 -8 -1 -20 5 -26 15 -15 43 8 35 28 -7 19 -32 18 -40
-2z"/>
<path d="M8100 8910 c-13 -8 -13 -11 2 -27 21 -20 45 -5 35 21 -7 18 -16 20
-37 6z"/>
<path d="M8200 8906 c-8 -10 -6 -15 6 -20 17 -7 34 0 34 14 0 15 -28 19 -40 6z"/>
<path d="M8303 8904 c-7 -20 17 -37 34 -23 15 13 6 39 -13 39 -8 0 -17 -7 -21
-16z"/>
<path d="M8420 8910 c-13 -8 -13 -11 2 -27 21 -20 45 -5 35 21 -7 18 -16 20
-37 6z"/>
<path d="M8531 8906 c-9 -10 -9 -16 -1 -21 17 -10 37 12 24 25 -8 8 -15 6 -23
-4z"/>
<path d="M8623 8904 c-7 -20 17 -37 34 -23 15 13 6 39 -13 39 -8 0 -17 -7 -21
-16z"/>
<path d="M8740 8910 c-13 -8 -13 -11 2 -27 21 -20 45 -5 35 21 -7 18 -16 20
-37 6z"/>
<path d="M8844 8909 c-10 -17 23 -46 37 -32 7 7 9 19 6 27 -7 18 -33 21 -43 5z"/>
<path d="M8943 8904 c-7 -20 17 -37 34 -23 15 13 6 39 -13 39 -8 0 -17 -7 -21
-16z"/>
<path d="M9053 8904 c-3 -8 -1 -20 5 -26 15 -15 43 8 35 28 -7 19 -32 18 -40
-2z"/>
<path d="M9164 8909 c-10 -17 23 -46 37 -32 7 7 9 19 6 27 -7 18 -33 21 -43 5z"/>
<path d="M2972 8670 c-20 -15 -32 -39 -26 -54 3 -9 10 -13 15 -10 5 3 6 -2 3
-10 -4 -11 3 -17 22 -22 33 -8 56 5 68 39 8 21 6 31 -9 46 -16 19 -55 25 -73
11z"/>
<path d="M3015 8425 c-31 -31 -31 -48 0 -69 34 -22 61 -20 79 6 21 29 20 40
-3 66 -24 29 -46 28 -76 -3z"/>
<path d="M10058 8210 l-38 -41 0 -834 0 -833 27 -33 c53 -62 -16 -59 1245 -59
1078 0 1155 1 1187 18 19 9 44 30 55 45 21 28 21 37 24 848 3 910 5 869 -62
910 -30 18 -74 19 -1215 19 l-1184 0 -39 -40z"/>
<path d="M3078 8208 c-30 -24 -31 -56 -4 -83 31 -31 41 -31 71 0 30 29 31 49
5 75 -23 23 -49 26 -72 8z"/>
<path d="M6600 8110 l0 -110 495 0 495 0 0 110 0 110 -495 0 -495 0 0 -110z"/>
<path d="M7680 8110 l0 -110 385 0 385 0 0 110 0 110 -385 0 -385 0 0 -110z"/>
<path d="M8530 8110 l0 -110 305 0 305 0 0 110 0 110 -305 0 -305 0 0 -110z"/>
<path d="M16840 8130 c-35 -35 -21 -75 30 -85 25 -5 70 21 70 40 0 21 -41 65
-61 65 -10 0 -28 -9 -39 -20z"/>
<path d="M3140 7970 c-26 -26 -25 -58 2 -81 27 -24 39 -24 66 1 27 25 28 61 4
83 -25 22 -48 21 -72 -3z"/>
<path d="M16776 7901 c-26 -28 -17 -73 16 -85 59 -21 106 53 56 88 -30 21 -51
20 -72 -3z"/>
<path d="M3208 7738 c-22 -27 -23 -54 -4 -74 19 -18 41 -18 71 2 30 20 32 47
5 74 -26 26 -51 25 -72 -2z"/>
<path d="M6600 7595 l0 -115 188 2 187 3 3 104 c2 77 -1 107 -10 113 -7 4 -93
8 -190 8 l-178 0 0 -115z"/>
<path d="M7090 7595 l0 -115 1025 0 1026 0 -3 113 -3 112 -1022 3 -1023 2 0
-115z"/>
<path d="M16696 7674 c-9 -8 -16 -24 -16 -35 0 -23 34 -59 55 -59 21 0 55 36
55 59 0 27 -26 51 -55 51 -13 0 -31 -7 -39 -16z"/>
<path d="M2820 7534 c-37 -16 -60 -37 -79 -71 -8 -16 -11 -468 -11 -1705 0
-1662 0 -1683 20 -1716 11 -18 34 -41 52 -52 32 -19 53 -20 911 -20 630 0 884
3 900 11 28 15 67 58 78 88 5 13 9 265 9 574 -1 485 1 552 15 559 19 11 20 62
0 78 -13 11 -15 144 -15 1082 0 1188 5 1110 -68 1158 l-37 25 -870 2 c-758 2
-874 0 -905 -13z m1803 -1636 l-3 -1473 -905 0 -905 0 -3 1473 -2 1472 910 0
910 0 -2 -1472z m-1299 -1683 c21 -28 20 -68 -3 -96 -19 -24 -22 -24 -205 -24
-163 0 -187 2 -203 17 -26 27 -22 86 7 110 22 18 38 19 206 16 169 -3 184 -4
198 -23z m599 -7 c21 -28 19 -58 -7 -93 -14 -19 -26 -20 -201 -20 -184 0 -187
0 -206 24 -26 32 -24 67 6 97 25 24 25 24 206 22 l182 -3 20 -27z m585 16 c33
-23 31 -86 -5 -114 -26 -20 -36 -21 -199 -18 -152 3 -174 5 -193 22 -35 32
-24 102 19 119 8 3 92 6 185 6 139 1 175 -2 193 -15z"/>
<path d="M16622 7454 c-43 -30 -21 -94 34 -94 48 0 72 61 36 93 -23 21 -41 21
-70 1z"/>
<path d="M16530 7230 c-32 -32 -25 -66 18 -89 19 -10 26 -8 47 13 14 14 25 32
25 41 0 19 -35 55 -55 55 -8 0 -24 -9 -35 -20z"/>
<path d="M6600 7080 l0 -110 520 0 520 0 0 110 0 110 -520 0 -520 0 0 -110z"/>
<path d="M7730 7080 l0 -110 485 0 485 0 0 110 0 110 -485 0 -485 0 0 -110z"/>
<path d="M8790 7080 l0 -110 175 0 175 0 0 110 0 110 -175 0 -175 0 0 -110z"/>
<path d="M16426 7008 c-21 -29 -20 -51 2 -71 37 -33 92 -11 92 37 0 51 -66 74
-94 34z"/>
<path d="M15012 6875 c-553 -84 -1036 -409 -1327 -890 -101 -167 -178 -366
-223 -574 -25 -118 -27 -142 -26 -376 0 -279 9 -348 81 -573 63 -201 219 -486
297 -546 20 -15 47 -48 60 -74 31 -61 202 -226 326 -314 303 -215 630 -327
1005 -345 641 -30 1262 286 1621 823 319 479 398 1074 214 1627 -45 135 -134
315 -216 437 -275 411 -692 688 -1189 791 -132 27 -483 35 -623 14z m-530
-1376 c73 -16 150 -55 194 -99 20 -20 36 -40 36 -44 -1 -4 -36 -38 -78 -77
l-76 -71 -31 30 c-150 145 -363 12 -306 -191 21 -77 90 -127 174 -127 38 0
108 32 139 63 l24 24 80 -71 c94 -83 94 -84 -6 -153 -174 -119 -447 -89 -583
65 -55 63 -77 108 -91 191 -14 85 -2 175 33 248 27 57 119 152 170 176 95 44
217 58 321 36z m1978 -19 c36 -12 70 -26 77 -32 8 -7 2 -31 -25 -96 -20 -48
-36 -88 -37 -89 0 -1 -32 10 -70 24 -50 19 -90 26 -141 27 -76 0 -104 -12
-104 -46 0 -24 39 -41 150 -63 192 -39 270 -108 270 -237 -1 -188 -212 -296
-486 -248 -77 14 -185 51 -191 66 -3 10 59 170 71 181 2 2 30 -8 64 -22 122
-49 259 -56 286 -13 18 29 -11 46 -134 77 -63 16 -124 33 -135 37 -46 17 -106
68 -125 104 -23 45 -27 143 -8 187 35 80 117 142 218 163 76 16 246 5 320 -20z
m-1361 -63 c23 -39 77 -129 119 -200 42 -70 81 -126 86 -124 5 2 27 35 50 74
23 38 74 127 115 197 l73 126 109 0 109 0 0 -385 0 -385 -120 0 -120 0 -2 170
-3 171 -79 -136 -79 -135 -57 0 -58 0 -79 127 -78 126 -3 -161 -2 -162 -120 0
-120 0 0 385 0 385 108 0 107 0 44 -73z"/>
<path d="M17514 6804 c-60 -29 -81 -103 -45 -158 36 -54 94 -70 150 -41 28 14
61 68 61 100 0 34 -32 84 -65 99 -41 20 -61 20 -101 0z"/>
<path d="M16380 6790 c33 -26 48 -26 25 0 -10 11 -25 20 -34 20 -12 0 -9 -6 9
-20z"/>
<path d="M6600 6570 l0 -110 315 0 315 0 0 110 0 110 -315 0 -315 0 0 -110z"/>
<path d="M7330 6570 l0 -110 420 0 420 0 0 110 0 110 -420 0 -420 0 0 -110z"/>
<path d="M4794 5094 c-16 -24 -16 -27 3 -52 25 -34 49 -39 74 -16 21 19 25 64
7 82 -21 21 -66 14 -84 -14z"/>
<path d="M4966 4931 c-23 -25 -20 -44 10 -72 23 -22 27 -23 52 -8 29 16 41 61
23 83 -16 19 -67 17 -85 -3z"/>
<path d="M5147 4772 c-20 -22 -22 -63 -5 -80 21 -21 66 -14 83 12 15 22 15 27
0 55 -18 36 -53 41 -78 13z"/>
<path d="M5320 4611 c-21 -17 -23 -23 -15 -48 6 -17 22 -32 39 -38 24 -8 31
-6 47 14 24 30 24 67 0 81 -28 14 -42 12 -71 -9z"/>
<path d="M5510 4460 c-25 -25 -26 -52 -2 -73 24 -22 55 -21 75 1 21 23 21 41
1 70 -19 27 -48 28 -74 2z"/>
<path d="M5692 4318 c-32 -32 1 -98 50 -98 18 0 48 36 48 57 0 38 -71 68 -98
41z"/>
<path d="M7735 4283 c-72 -37 -124 -114 -125 -181 0 -18 -6 -47 -14 -65 -15
-37 -400 -425 -434 -438 -13 -5 -39 -9 -58 -9 -45 0 -102 -24 -137 -58 -114
-108 -88 -290 50 -358 45 -22 63 -26 118 -22 116 7 188 82 204 213 l8 66 199
200 c109 110 211 207 226 215 15 8 44 14 66 14 22 0 61 12 93 28 66 33 110 97
117 172 8 86 -1 90 -64 27 l-55 -55 -54 17 c-30 9 -57 20 -60 23 -4 3 -13 30
-20 59 l-14 54 49 50 c28 28 50 54 50 58 0 14 -115 6 -145 -10z m-181 -495 c9
-15 -1 -30 -67 -95 -65 -66 -80 -76 -95 -67 -34 22 -25 45 45 116 70 71 95 80
117 46z m-376 -361 c30 -31 31 -34 20 -75 -11 -46 -24 -57 -78 -67 -31 -5 -39
-2 -67 27 -32 33 -32 34 -19 78 10 33 20 47 42 57 46 19 68 15 102 -20z"/>
<path d="M9147 4278 c-16 -7 -99 -84 -186 -171 l-158 -158 19 -39 c24 -47 18
-87 -19 -131 l-26 -30 -24 22 -24 23 -27 -27 -27 -27 110 -110 109 -110 28 27
28 27 -21 23 c-19 19 -20 25 -9 38 36 43 103 56 154 30 l30 -16 140 138 c185
181 196 195 196 251 0 94 -43 169 -123 216 -51 30 -131 41 -170 24z"/>
<path d="M10258 4233 c-27 -4 -28 -6 -28 -73 0 -68 0 -68 -32 -79 -31 -11 -34
-9 -80 36 l-48 47 -50 -49 c-27 -27 -50 -54 -50 -60 0 -6 20 -30 44 -54 41
-40 43 -46 34 -72 -10 -28 -12 -29 -78 -29 l-67 0 -7 -40 c-3 -22 -3 -58 0
-80 l7 -40 66 0 c66 0 67 0 79 -32 12 -31 10 -34 -35 -80 l-48 -48 53 -52 52
-53 48 48 c46 45 49 47 80 36 32 -11 32 -11 32 -79 l0 -67 40 -7 c22 -3 58 -3
80 0 l40 7 0 67 c0 66 1 68 29 78 26 9 32 7 72 -34 24 -24 48 -44 53 -44 5 0
23 12 38 27 l28 27 0 -47 0 -47 40 0 c57 0 68 -25 29 -66 l-30 -31 31 -33 31
-33 28 27 c41 39 65 32 69 -21 3 -34 7 -42 28 -47 13 -4 35 -4 48 0 21 5 25
13 28 47 4 52 23 58 67 22 l31 -27 31 33 30 32 -30 31 c-39 41 -28 66 29 66
l40 0 0 45 0 45 -40 0 c-29 0 -42 5 -50 20 -9 16 -5 25 20 52 l30 31 -27 29
c-33 34 -40 35 -73 3 -36 -35 -58 -25 -62 28 l-3 42 -45 0 -45 0 -3 -42 c-4
-53 -26 -63 -62 -28 -33 32 -40 31 -74 -4 l-27 -28 29 -29 c23 -23 27 -34 21
-52 -7 -17 -16 -22 -44 -22 -37 0 -44 10 -20 30 22 18 19 25 -30 72 -44 41
-45 44 -34 76 11 32 11 32 79 32 l67 0 6 40 c3 22 3 58 0 80 l-6 40 -67 0
c-68 0 -68 0 -79 32 -11 32 -10 35 34 76 25 24 45 47 45 51 0 4 -22 29 -50 56
l-50 49 -48 -47 c-46 -45 -49 -47 -80 -36 -32 11 -32 11 -32 79 l0 67 -37 7
c-39 6 -49 6 -95 -1z m111 -359 c44 -56 11 -134 -57 -134 -48 0 -82 32 -82 79
0 76 94 113 139 55z m523 -351 c36 -32 17 -83 -32 -83 -51 0 -69 55 -28 84 28
20 37 20 60 -1z"/>
<path d="M5885 4170 c-25 -27 -10 -71 27 -84 23 -8 31 -6 48 14 25 29 25 52 2
73 -25 23 -55 21 -77 -3z"/>
<path d="M6092 4044 c-22 -15 -31 -67 -13 -78 12 -8 35 50 25 65 -4 8 -3 10 4
5 7 -4 12 -1 12 8 0 20 0 20 -28 0z"/>
<path d="M13596 3814 c-8 -20 1 -34 20 -34 17 0 17 10 0 33 -12 16 -14 16 -20
1z"/>
<path d="M13383 3768 c-26 -13 -35 -32 -27 -62 8 -33 39 -49 67 -35 41 22 50
64 19 92 -21 19 -28 20 -59 5z"/>
<path d="M13175 3657 c-26 -13 -35 -27 -35 -53 0 -24 29 -54 52 -54 21 0 58
43 58 68 0 29 -48 54 -75 39z"/>
<path d="M12959 3553 c-1 -5 -1 -11 0 -15 0 -4 -5 -5 -13 -2 -17 6 -26 -24
-15 -53 15 -40 78 -41 99 -2 16 29 -13 79 -45 79 -14 0 -26 -3 -26 -7z"/>
<path d="M12737 3454 c-34 -18 -35 -53 -4 -83 47 -44 114 19 74 70 -19 24 -40
28 -70 13z"/>
<path d="M12501 3354 c-19 -24 -19 -28 -6 -54 17 -34 33 -41 60 -27 53 27 58
73 10 95 -36 17 -41 15 -64 -14z"/>
<path d="M4712 3340 c-6 -11 -12 -40 -12 -65 0 -63 -24 -85 -93 -85 -59 0 -77
-12 -77 -50 0 -41 29 -60 88 -60 65 0 82 -16 82 -78 0 -81 41 -112 90 -69 15
13 20 30 20 70 0 64 11 77 64 77 59 0 82 9 96 35 11 20 10 28 -4 50 -14 21
-24 25 -64 25 -69 0 -92 20 -92 78 0 27 -7 57 -16 70 -19 28 -65 29 -82 2z"/>
<path d="M12313 3243 c-12 -25 -20 -50 -17 -54 16 -27 74 9 74 45 0 21 -18 56
-28 56 -4 0 -17 -21 -29 -47z"/>
</g>
</svg>
